<svg width="28" height="11" viewBox="0 0 28 11" fill="none" xmlns="http://www.w3.org/2000/svg">
<g clip-path="url(#clip0_2498_5894)">
<path d="M6.84136 9.94017H3.13031L2.53541 11H0L3.59773 5H6.40227L10 11H7.43626L6.84136 9.94017ZM6.21813 8.81197L4.98584 6.61538L3.7677 8.81197H6.21813Z" fill="white"/>
<path d="M9 7.68984C9 7.22995 9.07244 6.8262 9.21732 6.47861C9.36672 6.13102 9.56819 5.86364 9.82173 5.67647C10.0753 5.4893 10.3582 5.39572 10.6706 5.39572C10.9196 5.39572 11.146 5.45722 11.3497 5.58021C11.558 5.70321 11.721 5.86898 11.8387 6.07754V4H13V9.93583H11.8387V9.29412C11.7301 9.50802 11.5739 9.67914 11.3701 9.80749C11.1709 9.93583 10.9377 10 10.6706 10C10.3582 10 10.0753 9.90642 9.82173 9.71925C9.56819 9.52674 9.36672 9.25668 9.21732 8.90909C9.07244 8.55615 9 8.14973 9 7.68984ZM11.8387 7.69786C11.8387 7.35561 11.7572 7.08556 11.5942 6.8877C11.4358 6.68984 11.2411 6.59091 11.0102 6.59091C10.7793 6.59091 10.5823 6.68984 10.4194 6.8877C10.2609 7.08021 10.1817 7.34759 10.1817 7.68984C10.1817 8.03209 10.2609 8.30481 10.4194 8.50802C10.5823 8.70588 10.7793 8.80481 11.0102 8.80481C11.2411 8.80481 11.4358 8.70588 11.5942 8.50802C11.7572 8.31016 11.8387 8.04011 11.8387 7.69786Z" fill="white"/>
<path d="M15.8541 5.66486C16.2 5.66486 16.4775 5.86667 16.6865 6.27027C16.8955 6.66757 17 7.21622 17 7.91622V11H16.0811V8.13378C16.0811 7.78063 16.0288 7.50631 15.9243 7.31081C15.8198 7.11532 15.6793 7.01757 15.5027 7.01757C15.3261 7.01757 15.1856 7.11532 15.0811 7.31081C14.9766 7.50631 14.9243 7.78063 14.9243 8.13378V11H14V4H14.9243V6.43108C15.018 6.19775 15.1459 6.01171 15.3081 5.87297C15.4703 5.73423 15.6523 5.66486 15.8541 5.66486Z" fill="#0FFCBE"/>
<path d="M28.1687 7.03799L17 6.99842L17.0071 4.99949L28.1758 5.03906L28.1687 7.03799Z" fill="#0FFCBE"/>
<path d="M15.3936 2.48151C15.3936 2.17222 15.4226 1.9007 15.4808 1.66693C15.5408 1.43316 15.6218 1.25334 15.7236 1.12747C15.8254 1.0016 15.9391 0.938659 16.0645 0.938659C16.1645 0.938659 16.2554 0.980018 16.3373 1.06273C16.4209 1.14545 16.4864 1.25694 16.5337 1.3972V0H17.0001V3.992H16.5337V3.56043C16.49 3.70429 16.4273 3.81937 16.3455 3.90569C16.2654 3.992 16.1718 4.03516 16.0645 4.03516C15.9391 4.03516 15.8254 3.97222 15.7236 3.84635C15.6218 3.71688 15.5408 3.53526 15.4808 3.30149C15.4226 3.06413 15.3936 2.7908 15.3936 2.48151ZM16.5337 2.48691C16.5337 2.25674 16.5009 2.07512 16.4355 1.94205C16.3718 1.80899 16.2936 1.74245 16.2009 1.74245C16.1082 1.74245 16.0291 1.80899 15.9636 1.94205C15.9 2.07152 15.8681 2.25134 15.8681 2.48151C15.8681 2.71168 15.9 2.8951 15.9636 3.03176C16.0291 3.16483 16.1082 3.23136 16.2009 3.23136C16.2936 3.23136 16.3718 3.16483 16.4355 3.03176C16.5009 2.8987 16.5337 2.71708 16.5337 2.48691Z" fill="white"/>
<path d="M15.2403 2.4372C15.2403 2.52351 15.2376 2.61342 15.2321 2.70693H14.1766C14.1838 2.89394 14.2138 3.0378 14.2666 3.13849C14.3211 3.2356 14.3875 3.28415 14.4657 3.28415C14.5821 3.28415 14.663 3.18705 14.7084 2.99284H15.2048C15.1794 3.19064 15.133 3.36866 15.0657 3.52691C15.0003 3.68515 14.9175 3.80922 14.8175 3.89913C14.7175 3.98904 14.6057 4.034 14.482 4.034C14.3329 4.034 14.2002 3.97106 14.0838 3.84519C13.9675 3.71931 13.8765 3.53949 13.8111 3.30573C13.7456 3.07196 13.7129 2.79863 13.7129 2.48575C13.7129 2.17286 13.7447 1.89954 13.8084 1.66577C13.8738 1.432 13.9647 1.25218 14.0811 1.12631C14.1975 1.00044 14.3311 0.9375 14.482 0.9375C14.6293 0.9375 14.7603 0.998639 14.8748 1.12092C14.9894 1.24319 15.0785 1.41762 15.1421 1.64419C15.2076 1.87076 15.2403 2.1351 15.2403 2.4372ZM14.763 2.19444C14.763 2.0362 14.7357 1.91033 14.6812 1.81682C14.6266 1.72331 14.5584 1.67656 14.4766 1.67656C14.3984 1.67656 14.332 1.72151 14.2775 1.81142C14.2248 1.90133 14.192 2.02901 14.1793 2.19444H14.763Z" fill="white"/>
<path d="M12.86 0.949219C13.0491 0.949219 13.1991 1.06251 13.31 1.28908C13.4227 1.51565 13.4791 1.83034 13.4791 2.23313V3.99177H13.0154V2.35721C13.0154 2.163 12.9891 2.01375 12.9363 1.90946C12.8854 1.80156 12.8145 1.74762 12.7236 1.74762C12.6327 1.74762 12.5608 1.80156 12.5081 1.90946C12.4572 2.01375 12.4317 2.163 12.4317 2.35721V3.99177H11.9681V2.35721C11.9681 2.163 11.9417 2.01375 11.889 1.90946C11.838 1.80156 11.7671 1.74762 11.6762 1.74762C11.5853 1.74762 11.5135 1.80156 11.4607 1.90946C11.4098 2.01375 11.3844 2.163 11.3844 2.35721V3.99177H10.918V0.981586H11.3844V1.35921C11.4316 1.23333 11.4935 1.13443 11.5698 1.06251C11.6462 0.986981 11.7326 0.949219 11.829 0.949219C11.9435 0.949219 12.0453 0.99777 12.1344 1.09487C12.2254 1.19198 12.2963 1.33044 12.3472 1.51026C12.3999 1.34482 12.4717 1.20996 12.5627 1.10566C12.6536 1.00137 12.7527 0.949219 12.86 0.949219Z" fill="#0FFCBE"/>
<path d="M9.97226 0.949219C10.1614 0.949219 10.3114 1.06251 10.4223 1.28908C10.535 1.51565 10.5914 1.83034 10.5914 2.23313V3.99177H10.1277V2.35721C10.1277 2.163 10.1014 2.01375 10.0486 1.90946C9.99772 1.80156 9.9268 1.74762 9.83588 1.74762C9.74497 1.74762 9.67314 1.80156 9.62041 1.90946C9.5695 2.01375 9.54404 2.163 9.54404 2.35721V3.99177H9.08036V2.35721C9.08036 2.163 9.054 2.01375 9.00127 1.90946C8.95035 1.80156 8.87944 1.74762 8.78852 1.74762C8.6976 1.74762 8.62578 1.80156 8.57305 1.90946C8.52213 2.01375 8.49668 2.163 8.49668 2.35721V3.99177H8.03027V0.981586H8.49668V1.35921C8.54395 1.23333 8.60578 1.13443 8.68215 1.06251C8.75852 0.986981 8.84489 0.949219 8.94126 0.949219C9.05582 0.949219 9.15764 0.99777 9.24674 1.09487C9.33766 1.19198 9.40857 1.33044 9.45949 1.51026C9.51222 1.34482 9.58404 1.20996 9.67496 1.10566C9.76588 1.00137 9.86498 0.949219 9.97226 0.949219Z" fill="white"/>
<path d="M6.08691 2.48035C6.08691 2.17106 6.11601 1.89954 6.17419 1.66577C6.2342 1.432 6.31512 1.25218 6.41694 1.12631C6.51877 1.00044 6.63242 0.9375 6.75788 0.9375C6.86516 0.9375 6.95881 0.980657 7.03881 1.06697C7.12064 1.15328 7.18337 1.26657 7.22701 1.40683V0.980657H7.69342V3.99084H7.22701V3.56467C7.18155 3.70493 7.11791 3.81821 7.03609 3.90453C6.95608 3.99084 6.86244 4.034 6.75515 4.034C6.63151 4.034 6.51877 3.97106 6.41694 3.84519C6.31512 3.71572 6.2342 3.5341 6.17419 3.30033C6.11601 3.06297 6.08691 2.78964 6.08691 2.48035ZM7.22701 2.48575C7.22701 2.25558 7.19428 2.07396 7.12882 1.94089C7.06518 1.80783 6.98699 1.74129 6.89426 1.74129C6.80152 1.74129 6.72242 1.80783 6.65696 1.94089C6.59332 2.07036 6.5615 2.25018 6.5615 2.48035C6.5615 2.71052 6.59332 2.89394 6.65696 3.0306C6.72242 3.16367 6.80152 3.2302 6.89426 3.2302C6.98699 3.2302 7.06518 3.16367 7.12882 3.0306C7.19428 2.89754 7.22701 2.71592 7.22701 2.48575Z" fill="white"/>
<path d="M5.27733 0.949448C5.45189 0.949448 5.59191 1.06453 5.69737 1.2947C5.80283 1.52128 5.85556 1.83416 5.85556 2.23336V3.992H5.39189V2.35744C5.39189 2.15604 5.36552 1.9996 5.31279 1.88811C5.26006 1.77662 5.18914 1.72088 5.10004 1.72088C5.01095 1.72088 4.94003 1.77662 4.8873 1.88811C4.83457 1.9996 4.8082 2.15604 4.8082 2.35744V3.992H4.3418V0H4.8082V1.38641C4.85548 1.25334 4.92003 1.14725 5.00185 1.06813C5.08368 0.989009 5.17551 0.949448 5.27733 0.949448Z" fill="#0FFCBE"/>
<path d="M4.00673 0.982422V3.99261H3.54033V3.58262C3.49305 3.71568 3.4285 3.82357 3.34667 3.90629C3.26667 3.98541 3.17757 4.02497 3.07938 4.02497C2.963 4.02497 2.86027 3.97462 2.77117 3.87392C2.68207 3.76963 2.61297 3.62038 2.56388 3.42617C2.51478 3.23197 2.49023 3.0036 2.49023 2.74106V0.982422H2.95391V2.61698C2.95391 2.81838 2.98028 2.97483 3.03301 3.08631C3.08574 3.1978 3.15666 3.25355 3.24575 3.25355C3.33667 3.25355 3.4085 3.1978 3.46123 3.08631C3.51396 2.97483 3.54033 2.81838 3.54033 2.61698V0.982422H4.00673Z" fill="white"/>
<path d="M2.16837 0.205078V3.99208H1.70197V1.72096L1.27375 3.99208H0.897351L0.466404 1.71556V3.99208H0V0.205078H0.550957L1.08828 2.82685L1.62014 0.205078H2.16837Z" fill="white"/>
<path d="M24.2866 10.0864C24.2878 9.77447 24.3773 9.5183 24.5549 9.31794C24.7392 9.12455 24.964 9.02838 25.2292 9.02943C25.5012 9.03051 25.7252 9.12847 25.9012 9.32329C26.084 9.52508 26.1748 9.78196 26.1735 10.0939C26.1723 10.399 26.0795 10.6482 25.8952 10.8416C25.7176 11.042 25.4928 11.1416 25.2208 11.1405C24.9556 11.1395 24.7316 11.0381 24.5488 10.8363C24.3728 10.6414 24.2854 10.3915 24.2866 10.0864ZM23.6915 10.9681L18.0002 10.9454L18.0072 9.16713L23.6986 9.18974L23.6915 10.9681Z" fill="#0FFCBE"/>
</g>
<defs>
<clipPath id="clip0_2498_5894">
<rect width="28" height="11" fill="white"/>
</clipPath>
</defs>
</svg>
