<svg width="37" height="33" viewBox="0 0 37 33" fill="none" xmlns="http://www.w3.org/2000/svg">
<path d="M16.5636 2.9477L1.75641 28.9346C0.977584 30.3015 1.96468 32 3.53786 32H14.4655C15.1752 32 15.8345 31.633 16.2083 31.0297L18.0914 27.9911C18.5362 27.2733 18.4867 26.3577 18.0122 25.6593C12.2974 17.2471 17.6195 14.753 23.2481 14.4699C24.9841 14.3826 26.1939 12.423 25.2569 10.959L20.072 2.85752C19.2407 1.55866 17.327 1.60786 16.5636 2.9477Z" fill="#0FFCBE" stroke="white" stroke-width="0.146453"/>
<path d="M24.401 31.2298C11.2784 15.7693 21.1323 14.8726 28.1779 16.9468C28.658 17.0881 29.0571 17.4182 29.3078 17.8514L35.6905 28.8767C36.4818 30.2436 35.4955 31.9543 33.9161 31.9543H25.9577C25.3643 31.9543 24.7851 31.6823 24.401 31.2298Z" fill="white"/>
</svg>
